<?xml version="1.0" standalone="no"?>
<!DOCTYPE svg PUBLIC "-//W3C//DTD SVG 20010904//EN"
 "http://www.w3.org/TR/2001/REC-SVG-20010904/DTD/svg10.dtd">
<svg version="1.0" xmlns="http://www.w3.org/2000/svg"
 width="868.000000pt" height="1280.000000pt" viewBox="0 0 868.000000 1280.000000"
 preserveAspectRatio="xMidYMid meet">
<g transform="translate(0.000000,1280.000000) scale(0.100000,-0.100000)"
fill="#000000" stroke="none">
<path d="M3835 12593 c-804 -31 -1409 -105 -1972 -239 -568 -135 -957 -302
-1130 -487 -85 -91 -107 -142 -107 -242 0 -73 3 -87 42 -168 55 -115 73 -139
157 -204 320 -252 1219 -472 2295 -562 680 -57 1642 -57 2330 0 909 75 1749
257 2135 463 204 108 342 221 400 326 27 49 30 64 30 140 0 73 -4 93 -28 142
-90 184 -389 356 -873 502 -743 225 -1721 340 -2839 334 -203 -1 -401 -3 -440
-5z"/>
</g>
</svg>
